<svg xmlns="http://www.w3.org/2000/svg"  viewBox="0 0 48 48" width="48px" height="48px"><defs><radialGradient id="nZMVIf8Uzv8jEWb_SpGB9a" cx="23.11" cy="25.8" r="24.52" fx="23.11" fy="25.8" gradientUnits="userSpaceOnUse"><stop offset="0" stop-color="#ecfcef"/><stop offset=".59" stop-color="#c2f3db"/><stop offset=".96" stop-color="#b5d9f7"/></radialGradient><radialGradient id="nZMVIf8Uzv8jEWb_SpGB9b" cx="23.08" cy="26.28" r="23.6" fx="23.08" fy="26.28" gradientUnits="userSpaceOnUse"><stop offset="0" stop-color="#e8fbeb"/><stop offset=".59" stop-color="#b4f0d3"/><stop offset=".96" stop-color="#a4d1f5"/></radialGradient><radialGradient id="nZMVIf8Uzv8jEWb_SpGB9c" cx="23.04" cy="26.74" r="22.71" fx="23.04" fy="26.74" gradientUnits="userSpaceOnUse"><stop offset="0" stop-color="#e4fae8"/><stop offset=".59" stop-color="#a7eecb"/><stop offset=".96" stop-color="#94c8f4"/></radialGradient><radialGradient id="nZMVIf8Uzv8jEWb_SpGB9d" cx="23.01" cy="27.19" r="21.85" fx="23.01" fy="27.19" gradientUnits="userSpaceOnUse"><stop offset="0" stop-color="#dffae4"/><stop offset=".59" stop-color="#99ebc3"/><stop offset=".96" stop-color="#83c0f2"/></radialGradient><radialGradient id="nZMVIf8Uzv8jEWb_SpGB9e" cx="22.98" cy="27.63" r="21.01" fx="22.98" fy="27.63" gradientUnits="userSpaceOnUse"><stop offset="0" stop-color="#dbf9e0"/><stop offset=".59" stop-color="#8ce8bb"/><stop offset=".96" stop-color="#73b8f0"/></radialGradient><radialGradient id="nZMVIf8Uzv8jEWb_SpGB9f" cx="22.95" cy="28.04" r="20.2" fx="22.95" fy="28.04" gradientUnits="userSpaceOnUse"><stop offset="0" stop-color="#d7f8dd"/><stop offset=".59" stop-color="#7ee6b4"/><stop offset=".96" stop-color="#62afef"/></radialGradient><radialGradient id="nZMVIf8Uzv8jEWb_SpGB9g" cx="22.93" cy="28.44" r="19.41" fx="22.93" fy="28.44" gradientUnits="userSpaceOnUse"><stop offset="0" stop-color="#d3f7d9"/><stop offset=".59" stop-color="#71e3ac"/><stop offset=".96" stop-color="#52a7ed"/></radialGradient><radialGradient id="nZMVIf8Uzv8jEWb_SpGB9h" cx="22.9" cy="28.83" r="18.64" fx="22.9" fy="28.83" gradientUnits="userSpaceOnUse"><stop offset="0" stop-color="#cef7d5"/><stop offset=".59" stop-color="#63e0a4"/><stop offset=".96" stop-color="#419feb"/></radialGradient><radialGradient id="nZMVIf8Uzv8jEWb_SpGB9i" cx="22.88" cy="29.2" r="17.9" fx="22.88" fy="29.2" gradientUnits="userSpaceOnUse"><stop offset="0" stop-color="#caf6d2"/><stop offset=".59" stop-color="#56de9c"/><stop offset=".96" stop-color="#3196ea"/></radialGradient><radialGradient id="nZMVIf8Uzv8jEWb_SpGB9j" cx="22.86" cy="29.55" r="17.18" fx="22.86" fy="29.55" gradientUnits="userSpaceOnUse"><stop offset="0" stop-color="#c6f5ce"/><stop offset=".59" stop-color="#48db94"/><stop offset=".96" stop-color="#208ee8"/></radialGradient><radialGradient id="nZMVIf8Uzv8jEWb_SpGB9k" cx="22.45" cy="18.33" r="19.45" fx="22.45" fy="18.33" gradientUnits="userSpaceOnUse"><stop offset="0" stop-color="#fee6e6"/><stop offset=".18" stop-color="#fcdee2"/><stop offset=".44" stop-color="#f9c8d7"/><stop offset=".6" stop-color="#f7b8d0"/><stop offset="1" stop-color="#feaaaa"/></radialGradient><radialGradient id="nZMVIf8Uzv8jEWb_SpGB9l" cx="22.39" cy="18.45" r="19.29" fx="22.39" fy="18.45" gradientUnits="userSpaceOnUse"><stop offset="0" stop-color="#fee1e1"/><stop offset=".15" stop-color="#fcd9dd"/><stop offset=".38" stop-color="#f9c3d3"/><stop offset=".6" stop-color="#f5a8c6"/><stop offset="1" stop-color="#fe9797"/></radialGradient><radialGradient id="nZMVIf8Uzv8jEWb_SpGB9m" cx="22.32" cy="18.55" r="19.12" fx="22.32" fy="18.55" gradientUnits="userSpaceOnUse"><stop offset="0" stop-color="#fddbdb"/><stop offset=".14" stop-color="#fbd3d7"/><stop offset=".34" stop-color="#f9bdcc"/><stop offset=".59" stop-color="#f49abc"/><stop offset=".6" stop-color="#f498bb"/><stop offset="1" stop-color="#fe8484"/></radialGradient><radialGradient id="nZMVIf8Uzv8jEWb_SpGB9n" cx="22.25" cy="18.64" r="18.93" fx="22.25" fy="18.64" gradientUnits="userSpaceOnUse"><stop offset="0" stop-color="#fdd6d6"/><stop offset=".12" stop-color="#fbced2"/><stop offset=".31" stop-color="#f8b8c7"/><stop offset=".53" stop-color="#f395b7"/><stop offset=".6" stop-color="#f289b1"/><stop offset="1" stop-color="#fd7171"/></radialGradient><radialGradient id="nZMVIf8Uzv8jEWb_SpGB9o" cx="22.18" cy="18.71" r="18.72" fx="22.18" fy="18.71" gradientUnits="userSpaceOnUse"><stop offset="0" stop-color="#fdd0d0"/><stop offset=".11" stop-color="#fbc8cc"/><stop offset=".28" stop-color="#f8b2c1"/><stop offset=".49" stop-color="#f38fb0"/><stop offset=".6" stop-color="#f079a6"/><stop offset="1" stop-color="#fd5e5e"/></radialGradient><radialGradient id="nZMVIf8Uzv8jEWb_SpGB9p" cx="22.1" cy="18.77" r="18.49" fx="22.1" fy="18.77" gradientUnits="userSpaceOnUse"><stop offset="0" stop-color="#fccbcb"/><stop offset=".11" stop-color="#fac3c7"/><stop offset=".26" stop-color="#f8adbc"/><stop offset=".45" stop-color="#f38aac"/><stop offset=".6" stop-color="#ef699c"/><stop offset="1" stop-color="#fd4c4c"/></radialGradient><radialGradient id="nZMVIf8Uzv8jEWb_SpGB9q" cx="22.02" cy="18.81" r="18.25" fx="22.02" fy="18.81" gradientUnits="userSpaceOnUse"><stop offset="0" stop-color="#fcc5c5"/><stop offset=".1" stop-color="#fabdc1"/><stop offset=".24" stop-color="#f7a7b6"/><stop offset=".42" stop-color="#f384a5"/><stop offset=".6" stop-color="#ed5991"/><stop offset="1" stop-color="#fd3939"/></radialGradient><radialGradient id="nZMVIf8Uzv8jEWb_SpGB9r" cx="21.93" cy="18.83" r="17.99" fx="21.93" fy="18.83" gradientUnits="userSpaceOnUse"><stop offset="0" stop-color="#fcc0c0"/><stop offset=".09" stop-color="#fab8bc"/><stop offset=".23" stop-color="#f7a2b1"/><stop offset=".4" stop-color="#f27fa0"/><stop offset=".59" stop-color="#eb4e89"/><stop offset=".6" stop-color="#eb4a87"/><stop offset="1" stop-color="#fc2626"/></radialGradient><radialGradient id="nZMVIf8Uzv8jEWb_SpGB9s" cx="21.84" cy="18.83" r="17.71" fx="21.84" fy="18.83" gradientUnits="userSpaceOnUse"><stop offset="0" stop-color="#fbbaba"/><stop offset=".09" stop-color="#f9b2b6"/><stop offset=".22" stop-color="#f79cab"/><stop offset=".37" stop-color="#f2799a"/><stop offset=".55" stop-color="#eb4883"/><stop offset=".6" stop-color="#ea3a7c"/><stop offset="1" stop-color="#fc1313"/></radialGradient><radialGradient id="nZMVIf8Uzv8jEWb_SpGB9t" cx="21.75" cy="18.82" r="17.42" fx="21.75" fy="18.82" gradientUnits="userSpaceOnUse"><stop offset="0" stop-color="#fbb5b5"/><stop offset=".08" stop-color="#f9adb1"/><stop offset=".21" stop-color="#f697a6"/><stop offset=".35" stop-color="#f27495"/><stop offset=".52" stop-color="#eb437e"/><stop offset=".6" stop-color="#e82a72"/><stop offset="1" stop-color="#fc0000"/></radialGradient><radialGradient id="nZMVIf8Uzv8jEWb_SpGB9u" cx="19.41" cy="23.9" r="22.8" fx="19.41" fy="23.9" gradientUnits="userSpaceOnUse"><stop offset="0" stop-color="#f2fcff"/><stop offset=".55" stop-color="#c1f3f9"/><stop offset=".97" stop-color="#baccfd"/></radialGradient><radialGradient id="nZMVIf8Uzv8jEWb_SpGB9v" cx="19.67" cy="23.82" r="22.63" fx="19.67" fy="23.82" gradientUnits="userSpaceOnUse"><stop offset="0" stop-color="#effbff"/><stop offset=".55" stop-color="#b3f0f8"/><stop offset=".97" stop-color="#abc1fd"/></radialGradient><radialGradient id="nZMVIf8Uzv8jEWb_SpGB9w" cx="19.94" cy="23.75" r="22.42" fx="19.94" fy="23.75" gradientUnits="userSpaceOnUse"><stop offset="0" stop-color="#ecfbff"/><stop offset=".55" stop-color="#a5edf7"/><stop offset=".97" stop-color="#9bb5fc"/></radialGradient><radialGradient id="nZMVIf8Uzv8jEWb_SpGB9x" cx="20.23" cy="23.7" r="22.18" fx="20.23" fy="23.7" gradientUnits="userSpaceOnUse"><stop offset="0" stop-color="#eafaff"/><stop offset=".55" stop-color="#98ebf5"/><stop offset=".97" stop-color="#8caafc"/></radialGradient><radialGradient id="nZMVIf8Uzv8jEWb_SpGB9y" cx="20.54" cy="23.67" r="21.91" fx="20.54" fy="23.67" gradientUnits="userSpaceOnUse"><stop offset="0" stop-color="#e7f9ff"/><stop offset=".55" stop-color="#8ae8f4"/><stop offset=".97" stop-color="#7c9ffc"/></radialGradient><radialGradient id="nZMVIf8Uzv8jEWb_SpGB9z" cx="20.87" cy="23.66" r="21.61" fx="20.87" fy="23.66" gradientUnits="userSpaceOnUse"><stop offset="0" stop-color="#e4f9fe"/><stop offset=".55" stop-color="#7ce5f3"/><stop offset=".97" stop-color="#6d93fb"/></radialGradient><radialGradient id="nZMVIf8Uzv8jEWb_SpGB9A" cx="21.21" cy="23.66" r="21.27" fx="21.21" fy="23.66" gradientUnits="userSpaceOnUse"><stop offset="0" stop-color="#e1f8fe"/><stop offset=".55" stop-color="#6ee2f2"/><stop offset=".97" stop-color="#5d88fb"/></radialGradient><radialGradient id="nZMVIf8Uzv8jEWb_SpGB9B" cx="21.57" cy="23.69" r="20.9" fx="21.57" fy="23.69" gradientUnits="userSpaceOnUse"><stop offset="0" stop-color="#dff7fe"/><stop offset=".55" stop-color="#61e0f0"/><stop offset=".97" stop-color="#4e7dfb"/></radialGradient><radialGradient id="nZMVIf8Uzv8jEWb_SpGB9C" cx="21.95" cy="23.74" r="20.49" fx="21.95" fy="23.74" gradientUnits="userSpaceOnUse"><stop offset="0" stop-color="#dcf7fe"/><stop offset=".55" stop-color="#53ddef"/><stop offset=".97" stop-color="#3e71fa"/></radialGradient><radialGradient id="nZMVIf8Uzv8jEWb_SpGB9D" cx="22.34" cy="23.8" r="20.05" fx="22.34" fy="23.8" gradientUnits="userSpaceOnUse"><stop offset="0" stop-color="#d9f6fe"/><stop offset=".55" stop-color="#45daee"/><stop offset=".97" stop-color="#2f66fa"/></radialGradient><radialGradient id="nZMVIf8Uzv8jEWb_SpGB9E" cx="18.01" cy="24.39" r="17.82" fx="18.01" fy="24.39" gradientUnits="userSpaceOnUse"><stop offset="0" stop-color="#fef4d3"/><stop offset=".53" stop-color="#ffd7b2"/><stop offset="1" stop-color="#feb1bf"/></radialGradient><radialGradient id="nZMVIf8Uzv8jEWb_SpGB9F" cx="17.24" cy="24.38" r="17.2" fx="17.24" fy="24.38" gradientUnits="userSpaceOnUse"><stop offset="0" stop-color="#fef2c9"/><stop offset=".53" stop-color="#ffcea1"/><stop offset="1" stop-color="#fea0b1"/></radialGradient><radialGradient id="nZMVIf8Uzv8jEWb_SpGB9G" cx="16.48" cy="24.37" r="16.62" fx="16.48" fy="24.37" gradientUnits="userSpaceOnUse"><stop offset="0" stop-color="#fdefc0"/><stop offset=".53" stop-color="#ffc590"/><stop offset="1" stop-color="#fe8fa3"/></radialGradient><radialGradient id="nZMVIf8Uzv8jEWb_SpGB9H" cx="15.74" cy="24.36" r="16.09" fx="15.74" fy="24.36" gradientUnits="userSpaceOnUse"><stop offset="0" stop-color="#fdedb6"/><stop offset=".53" stop-color="#ffbd7f"/><stop offset="1" stop-color="#fd7d95"/></radialGradient><radialGradient id="nZMVIf8Uzv8jEWb_SpGB9I" cx="15.03" cy="24.36" r="15.59" fx="15.03" fy="24.36" gradientUnits="userSpaceOnUse"><stop offset="0" stop-color="#fdebac"/><stop offset=".53" stop-color="#ffb46e"/><stop offset="1" stop-color="#fd6c87"/></radialGradient><radialGradient id="nZMVIf8Uzv8jEWb_SpGB9J" cx="14.34" cy="24.35" r="15.13" fx="14.34" fy="24.35" gradientUnits="userSpaceOnUse"><stop offset="0" stop-color="#fce8a3"/><stop offset=".53" stop-color="#ffab5c"/><stop offset="1" stop-color="#fd5b78"/></radialGradient><radialGradient id="nZMVIf8Uzv8jEWb_SpGB9K" cx="13.66" cy="24.34" r="14.7" fx="13.66" fy="24.34" gradientUnits="userSpaceOnUse"><stop offset="0" stop-color="#fce699"/><stop offset=".53" stop-color="#ffa24b"/><stop offset="1" stop-color="#fd4a6a"/></radialGradient><radialGradient id="nZMVIf8Uzv8jEWb_SpGB9L" cx="13.01" cy="24.33" r="14.3" fx="13.01" fy="24.33" gradientUnits="userSpaceOnUse"><stop offset="0" stop-color="#fce48f"/><stop offset=".53" stop-color="#ff9a3a"/><stop offset="1" stop-color="#fc385c"/></radialGradient><radialGradient id="nZMVIf8Uzv8jEWb_SpGB9M" cx="12.38" cy="24.33" r="13.94" fx="12.38" fy="24.33" gradientUnits="userSpaceOnUse"><stop offset="0" stop-color="#fbe186"/><stop offset=".53" stop-color="#ff9129"/><stop offset="1" stop-color="#fc274e"/></radialGradient><radialGradient id="nZMVIf8Uzv8jEWb_SpGB9N" cx="11.77" cy="24.32" r="13.61" fx="11.77" fy="24.32" gradientUnits="userSpaceOnUse"><stop offset="0" stop-color="#fbdf7c"/><stop offset=".53" stop-color="#ff8818"/><stop offset="1" stop-color="#fc1640"/></radialGradient></defs><path fill="url(#nZMVIf8Uzv8jEWb_SpGB9a)" d="m24,44.03c-7.85,0-15.01-4.62-18.25-11.76l7.29-3.3c1.95,4.29,6.25,7.07,10.97,7.07,2.85,0,5.61-1.01,7.78-2.85l5.17,6.1c-3.61,3.06-8.21,4.75-12.95,4.75Z"/><path fill="url(#nZMVIf8Uzv8jEWb_SpGB9b)" d="m24,43.7c-7.72,0-14.76-4.54-17.95-11.57l6.68-3.03c2,4.41,6.42,7.26,11.27,7.26,2.93,0,5.77-1.04,7.99-2.93l4.74,5.59c-3.55,3.01-8.07,4.67-12.74,4.67Z"/><path fill="url(#nZMVIf8Uzv8jEWb_SpGB9c)" d="m24,43.37c-7.59,0-14.51-4.46-17.64-11.37l6.07-2.75c2.06,4.53,6.6,7.46,11.57,7.46,3.01,0,5.92-1.07,8.21-3.01l4.31,5.08c-3.49,2.96-7.94,4.59-12.52,4.59Z"/><path fill="url(#nZMVIf8Uzv8jEWb_SpGB9d)" d="m24,43.03c-7.45,0-14.26-4.39-17.34-11.18l5.46-2.48c2.11,4.65,6.77,7.66,11.88,7.66,3.08,0,6.08-1.1,8.42-3.09l3.88,4.58c-3.43,2.91-7.8,4.51-12.31,4.51Z"/><path fill="url(#nZMVIf8Uzv8jEWb_SpGB9e)" d="m24,42.7c-7.32,0-14.01-4.31-17.04-10.98l4.86-2.2c2.16,4.77,6.94,7.85,12.18,7.85,3.16,0,6.23-1.13,8.64-3.17l3.45,4.07c-3.37,2.86-7.66,4.43-12.09,4.43Z"/><path fill="url(#nZMVIf8Uzv8jEWb_SpGB9f)" d="m24,42.37c-7.19,0-13.76-4.23-16.73-10.79l4.25-1.93c2.22,4.89,7.12,8.05,12.48,8.05,3.24,0,6.39-1.15,8.86-3.25l3.02,3.56c-3.31,2.81-7.53,4.35-11.87,4.35Z"/><path fill="url(#nZMVIf8Uzv8jEWb_SpGB9g)" d="m24,42.03c-7.06,0-13.51-4.16-16.43-10.59l3.64-1.65c2.27,5.01,7.29,8.24,12.79,8.24,3.32,0,6.54-1.18,9.07-3.33l2.59,3.05c-3.25,2.76-7.39,4.27-11.66,4.27Z"/><path fill="url(#nZMVIf8Uzv8jEWb_SpGB9h)" d="m24,41.7c-6.93,0-13.26-4.08-16.13-10.4l3.04-1.38c2.32,5.13,7.46,8.44,13.09,8.44,3.4,0,6.7-1.21,9.29-3.4l2.16,2.54c-3.19,2.71-7.25,4.2-11.44,4.2Z"/><path fill="url(#nZMVIf8Uzv8jEWb_SpGB9i)" d="m24,41.37c-6.8,0-13.01-4-15.82-10.2l2.43-1.1c2.38,5.25,7.64,8.63,13.39,8.63,3.48,0,6.85-1.24,9.5-3.48l1.73,2.03c-3.13,2.65-7.12,4.12-11.23,4.12Z"/><path fill="url(#nZMVIf8Uzv8jEWb_SpGB9j)" d="m24,41.03c-6.67,0-12.76-3.93-15.52-10l1.82-.83c2.43,5.36,7.81,8.83,13.7,8.83,3.56,0,7.01-1.27,9.72-3.56l1.29,1.53c-3.07,2.6-6.98,4.04-11.01,4.04Z"/><g><path fill="url(#nZMVIf8Uzv8jEWb_SpGB9k)" d="m13.15,18.8l-7.21-3.46c3.32-6.9,10.41-11.36,18.06-11.36,4.68,0,9.17,1.62,12.75,4.58.43.36.46,1.02.08,1.43l-4.05,4.42c-.35.38-.94.45-1.34.13-2.11-1.66-4.72-2.57-7.44-2.57-4.6,0-8.86,2.68-10.85,6.83Z"/><path fill="url(#nZMVIf8Uzv8jEWb_SpGB9l)" d="m12.85,18.65l-6.61-3.18c3.26-6.79,10.24-11.17,17.76-11.17,4.48,0,8.8,1.51,12.26,4.31.4.33.43.93.08,1.32l-3.68,4.07c-.32.35-.86.42-1.23.13-2.12-1.63-4.73-2.5-7.43-2.5-4.73,0-9.1,2.75-11.15,7.02Z"/><path fill="url(#nZMVIf8Uzv8jEWb_SpGB9m)" d="m12.55,18.51l-6.01-2.89c3.21-6.67,10.06-10.99,17.46-10.99,4.29,0,8.44,1.4,11.77,4.05.37.29.4.85.09,1.2l-3.31,3.72c-.29.32-.78.39-1.13.13-2.12-1.59-4.73-2.42-7.41-2.42-4.85,0-9.35,2.83-11.45,7.21Z"/><path fill="url(#nZMVIf8Uzv8jEWb_SpGB9n)" d="m12.25,18.36l-5.41-2.6c3.15-6.56,9.89-10.8,17.16-10.8,4.09,0,8.07,1.3,11.27,3.78.34.26.37.76.09,1.08l-2.95,3.37c-.26.3-.7.35-1.02.12-2.13-1.56-4.73-2.35-7.4-2.35-4.98,0-9.6,2.9-11.75,7.4Z"/><path fill="url(#nZMVIf8Uzv8jEWb_SpGB9o)" d="m11.94,18.22l-4.81-2.31c3.1-6.44,9.72-10.61,16.86-10.61,3.9,0,7.7,1.19,10.78,3.51.3.23.34.68.09.97l-2.58,3.02c-.23.27-.62.32-.91.12-2.14-1.52-4.74-2.28-7.39-2.28-5.11,0-9.84,2.98-12.06,7.58Z"/><path fill="url(#nZMVIf8Uzv8jEWb_SpGB9p)" d="m11.64,18.07l-4.21-2.02c3.04-6.33,9.54-10.42,16.56-10.42,3.7,0,7.33,1.09,10.29,3.24.27.2.31.59.09.85l-2.21,2.66c-.2.24-.54.29-.8.11-2.15-1.48-4.74-2.2-7.38-2.2-5.24,0-10.09,3.05-12.36,7.77Z"/><path fill="url(#nZMVIf8Uzv8jEWb_SpGB9q)" d="m11.34,17.93l-3.61-1.73c2.99-6.21,9.37-10.23,16.26-10.23,3.51,0,6.95.99,9.8,2.97.24.17.27.51.1.73l-1.84,2.31c-.17.21-.47.26-.69.11-2.16-1.43-4.74-2.13-7.36-2.13-5.36,0-10.33,3.13-12.66,7.96Z"/><path fill="url(#nZMVIf8Uzv8jEWb_SpGB9r)" d="m11.04,17.79l-3-1.44c2.93-6.1,9.2-10.04,15.96-10.04,3.31,0,6.57.89,9.3,2.7.2.13.24.42.1.62l-1.47,1.96c-.14.18-.39.23-.58.11-2.17-1.38-4.75-2.05-7.35-2.05-5.49,0-10.58,3.2-12.96,8.15Z"/><path fill="url(#nZMVIf8Uzv8jEWb_SpGB9s)" d="m10.74,17.64l-2.4-1.16c2.88-5.98,9.02-9.85,15.66-9.85,3.12,0,6.19.81,8.81,2.43.17.1.21.34.1.5l-1.1,1.61c-.1.16-.31.2-.47.1-2.2-1.32-4.75-1.98-7.34-1.98-5.62,0-10.82,3.27-13.26,8.34Z"/><path fill="url(#nZMVIf8Uzv8jEWb_SpGB9t)" d="m10.44,17.5l-1.8-.87c2.82-5.87,8.85-9.66,15.36-9.66,2.92,0,5.79.75,8.32,2.17.14.08.18.25.1.38l-.73,1.25c-.07.13-.24.17-.36.1-2.23-1.25-4.76-1.9-7.33-1.9-5.75,0-11.07,3.35-13.56,8.53Z"/></g><g><path fill="url(#nZMVIf8Uzv8jEWb_SpGB9u)" d="m36.95,39.28l-5.17-6.1c1.62-1.37,2.82-3.12,3.53-5.06.02-.06-.02-.12-.08-.12h-10.22c-.55,0-1-.45-1-1v-6c0-.55.45-1,1-1h15.03c2.22,0,4,1.82,4,4.04-.01,5.88-2.59,11.43-7.08,15.24Z"/><path fill="url(#nZMVIf8Uzv8jEWb_SpGB9v)" d="m36.74,39.03l-4.74-5.59c1.65-1.4,2.87-3.19,3.61-5.17.11-.29-.11-.6-.42-.6h-9.87c-.56,0-.97-.41-.97-.92v-5.49c0-.51.41-.92.92-.92h14.59c2.14,0,3.85,1.76,3.83,3.89-.06,5.71-2.59,11.1-6.95,14.8Z"/><path fill="url(#nZMVIf8Uzv8jEWb_SpGB9w)" d="m36.52,38.77l-4.31-5.08c1.69-1.43,2.93-3.26,3.7-5.27.2-.52-.19-1.09-.75-1.09h-9.52c-.57,0-.95-.38-.95-.85v-4.97c0-.47.38-.85.85-.85h14.15c2.05,0,3.7,1.69,3.66,3.74-.11,5.55-2.58,10.76-6.83,14.37Z"/><path fill="url(#nZMVIf8Uzv8jEWb_SpGB9x)" d="m36.31,38.52l-3.88-4.57c1.72-1.46,3-3.32,3.78-5.37.29-.76-.27-1.57-1.08-1.57h-9.17c-.58,0-.92-.34-.92-.77v-4.46c0-.43.34-.77.77-.77h13.72c1.97,0,3.54,1.63,3.49,3.59-.15,5.38-2.58,10.43-6.7,13.93Z"/><path fill="url(#nZMVIf8Uzv8jEWb_SpGB9y)" d="m36.09,38.27l-3.45-4.07c1.76-1.49,3.06-3.38,3.87-5.48.38-.99-.35-2.05-1.41-2.05h-8.82c-.59,0-.9-.31-.9-.69v-3.95c0-.38.31-.69.69-.69h13.28c1.88,0,3.39,1.57,3.32,3.44-.2,5.21-2.57,10.1-6.57,13.49Z"/><path fill="url(#nZMVIf8Uzv8jEWb_SpGB9z)" d="m35.87,38.01l-3.02-3.56c1.79-1.52,3.13-3.45,3.95-5.58.47-1.22-.44-2.54-1.75-2.54h-8.47c-.6,0-.87-.28-.87-.62v-3.43c0-.34.28-.62.62-.62h12.84c1.8,0,3.23,1.5,3.15,3.29-.25,5.04-2.57,9.76-6.45,13.05Z"/><path fill="url(#nZMVIf8Uzv8jEWb_SpGB9A)" d="m35.66,37.76l-2.59-3.05c1.83-1.55,3.19-3.51,4.03-5.69.56-1.45-.52-3.02-2.08-3.02h-8.12c-.61,0-.85-.24-.85-.54v-2.92c0-.3.24-.54.54-.54h12.4c1.71,0,3.08,1.44,2.98,3.14-.29,4.88-2.56,9.43-6.32,12.61Z"/><path fill="url(#nZMVIf8Uzv8jEWb_SpGB9B)" d="m35.44,37.5l-2.16-2.54c1.86-1.58,3.26-3.57,4.12-5.79.65-1.69-.6-3.51-2.41-3.51h-7.77c-.62,0-.82-.21-.82-.46v-2.41c0-.26.21-.46.46-.46h11.96c1.62,0,2.93,1.38,2.81,2.99-.34,4.71-2.56,9.09-6.19,12.18Z"/><path fill="url(#nZMVIf8Uzv8jEWb_SpGB9C)" d="m35.23,37.25l-1.73-2.03c1.89-1.61,3.33-3.64,4.2-5.89.75-1.92-.68-3.99-2.74-3.99h-7.42c-.63,0-.8-.17-.8-.39v-1.9c0-.21.17-.39.39-.39h11.52c1.54,0,2.77,1.31,2.64,2.85-.39,4.54-2.55,8.76-6.06,11.74Z"/><path fill="url(#nZMVIf8Uzv8jEWb_SpGB9D)" d="m35.01,37l-1.29-1.53c1.93-1.64,3.39-3.7,4.29-6,.84-2.15-.77-4.47-3.08-4.47h-7.07c-.64,0-.77-.14-.77-.31v-1.38c0-.17.14-.31.31-.31h11.08c1.45,0,2.62,1.25,2.47,2.7-.44,4.37-2.55,8.42-5.94,11.3Z"/></g><g><path fill="url(#nZMVIf8Uzv8jEWb_SpGB9E)" d="m5.75,32.27c-1.18-2.61-1.78-5.39-1.78-8.27,0-3.03.66-5.95,1.97-8.67l7.21,3.46c-.78,1.63-1.18,3.38-1.18,5.2s.36,3.4,1.07,4.96l-7.29,3.3Z"/><path fill="url(#nZMVIf8Uzv8jEWb_SpGB9F)" d="m6.05,32.13c-1.16-2.56-1.75-5.3-1.75-8.13,0-2.98.65-5.85,1.94-8.52l6.61,3.18c-.8,1.67-1.21,3.47-1.21,5.35s.37,3.5,1.1,5.1l-6.68,3.03Z"/><path fill="url(#nZMVIf8Uzv8jEWb_SpGB9G)" d="m6.36,31.99c-1.14-2.52-1.72-5.21-1.72-7.99,0-2.93.64-5.75,1.9-8.38l6.01,2.89c-.83,1.72-1.25,3.57-1.25,5.49s.38,3.59,1.13,5.24l-6.07,2.75Z"/><path fill="url(#nZMVIf8Uzv8jEWb_SpGB9H)" d="m6.66,31.85c-1.12-2.48-1.69-5.12-1.69-7.85,0-2.88.63-5.65,1.87-8.24l5.41,2.6c-.85,1.77-1.28,3.66-1.28,5.64s.39,3.68,1.16,5.38l-5.46,2.48Z"/><path fill="url(#nZMVIf8Uzv8jEWb_SpGB9I)" d="m6.96,31.72c-1.1-2.43-1.66-5.03-1.66-7.72,0-2.83.62-5.55,1.84-8.09l4.81,2.31c-.87,1.81-1.31,3.76-1.31,5.78s.4,3.78,1.19,5.51l-4.86,2.2Z"/><path fill="url(#nZMVIf8Uzv8jEWb_SpGB9J)" d="m7.27,31.58c-1.08-2.39-1.63-4.94-1.63-7.58,0-2.78.61-5.46,1.8-7.95l4.21,2.02c-.89,1.86-1.34,3.85-1.34,5.93s.41,3.87,1.22,5.65l-4.25,1.93Z"/><path fill="url(#nZMVIf8Uzv8jEWb_SpGB9K)" d="m7.57,31.44c-1.06-2.35-1.6-4.85-1.6-7.44,0-2.73.6-5.36,1.77-7.8l3.61,1.73c-.91,1.9-1.38,3.94-1.38,6.07s.42,3.97,1.25,5.79l-3.64,1.65Z"/><path fill="url(#nZMVIf8Uzv8jEWb_SpGB9L)" d="m7.87,31.3c-1.04-2.3-1.57-4.76-1.57-7.3,0-2.68.59-5.26,1.74-7.66l3,1.44c-.94,1.95-1.41,4.04-1.41,6.22s.43,4.06,1.28,5.93l-3.04,1.38Z"/><path fill="url(#nZMVIf8Uzv8jEWb_SpGB9M)" d="m8.18,31.17c-1.02-2.26-1.54-4.67-1.54-7.17,0-2.63.57-5.16,1.71-7.51l2.4,1.15c-.96,1.99-1.44,4.13-1.44,6.36s.44,4.15,1.31,6.06l-2.43,1.1Z"/><path fill="url(#nZMVIf8Uzv8jEWb_SpGB9N)" d="m8.48,31.03c-1-2.21-1.51-4.58-1.51-7.03,0-2.58.56-5.06,1.67-7.37l1.8.87c-.98,2.04-1.48,4.23-1.48,6.5s.45,4.25,1.33,6.2l-1.82.83Z"/></g></svg>