<svg xmlns="http://www.w3.org/2000/svg" xmlns:xlink="http://www.w3.org/1999/xlink" width="250" zoomAndPan="magnify" viewBox="0 0 187.5 74.999997" height="100" preserveAspectRatio="xMidYMid meet" version="1.0"><defs><g/><clipPath id="cc908d70d8"><path d="M 2.050781 0.332031 L 58 0.332031 L 58 73 L 2.050781 73 Z M 2.050781 0.332031 " clip-rule="nonzero"/></clipPath></defs><g clip-path="url(#cc908d70d8)"><path fill="#b94c8c" d="M 43.761719 21.441406 C 30.476562 22.433594 29.605469 18.058594 16.976562 9.75 C 35.828125 3 36.765625 5.457031 43.613281 15.066406 C 38.191406 12.15625 32.707031 10.367188 27.160156 10.886719 C 34.828125 12.433594 40.871094 15.601562 44.976562 19.636719 C 46.140625 20.773438 47.371094 22.15625 48.585938 23.601562 C 46.140625 19.929688 46.847656 11.066406 49.03125 6.644531 C 46.304688 9.34375 45.386719 13.441406 45.976562 17.929688 C 41.101562 9.617188 43.183594 7.40625 51.328125 0.332031 C 52.5625 7.503906 58.257812 12.96875 48.785156 20.351562 C 49.078125 22.15625 49.917969 23.945312 50.359375 25.796875 C 51.574219 27.359375 52.675781 28.953125 53.578125 30.398438 C 57.46875 36.675781 58.851562 44.464844 56.78125 52.15625 C 52.773438 67.003906 37.371094 75.832031 22.363281 71.867188 C 11.773438 69.070312 4.203125 60.613281 2.101562 50.644531 C 2.792969 53.117188 3.808594 55.863281 5.1875 58.027344 C 17.699219 79.621094 51.59375 72.355469 55.894531 49.410156 C 57.554688 40.597656 50.902344 26.367188 43.761719 21.441406 Z M 43.761719 21.441406 " fill-opacity="1" fill-rule="evenodd"/></g><path fill="#ec8c90" d="M 32.398438 53.296875 C 39.867188 50.269531 44.464844 45.898438 45.582031 39.929688 C 46.945312 47.328125 40.871094 54.335938 32.398438 53.296875 Z M 34.398438 45.117188 C 25.878906 47.996094 18.09375 46.808594 11.101562 41.148438 C 15.039062 50.582031 25.863281 51.148438 34.398438 45.117188 Z M 39.113281 30.675781 C 36.976562 29.148438 34.648438 28.171875 32.117188 27.75 C 31.707031 26.824219 30.851562 25.863281 29.574219 25.050781 C 39.078125 26.042969 45.78125 31.179688 48.523438 39.082031 C 46.976562 27.929688 40.65625 22.578125 28.539062 24.222656 C 21.722656 19.847656 10.886719 22.074219 9.71875 31.523438 C 6.027344 34.953125 5.351562 39.261719 7.71875 44.417969 L 10.097656 45.035156 C 8.210938 41.230469 8.292969 37.425781 9.472656 33.621094 C 9.902344 35.703125 11.050781 37.359375 12.757812 38.742188 C 7.4375 25.3125 20.738281 20.789062 30.722656 27.585938 C 27.570312 27.328125 24.152344 27.863281 20.476562 29.195312 C 10.097656 33.863281 17.929688 48.597656 31.183594 41.734375 C 37.289062 37.863281 31.527344 30.417969 23.449219 33.683594 C 19.800781 35.78125 22.808594 41.117188 27.617188 39.457031 C 21.164062 39.570312 22.183594 33.472656 28.128906 34.789062 C 34.007812 36.125 31.90625 40.90625 24.234375 40.597656 C 18.308594 40.417969 16.027344 33.667969 22.316406 31.195312 C 33.167969 27.636719 52.855469 36.433594 32.183594 49.296875 C 42.183594 46.855469 46.503906 37.539062 39.113281 30.675781 Z M 10.804688 53.441406 C 20.148438 74.140625 53.859375 64.890625 50.148438 41.832031 C 47.160156 63.476562 23.121094 71.867188 10.804688 53.441406 Z M 27.535156 61.914062 C 19.441406 61.34375 21.691406 47.164062 3.039062 43.003906 C 3.464844 53.164062 9.441406 59.621094 15.925781 62.988281 C 10.835938 58.484375 6.355469 53.667969 6.007812 46.710938 C 16.8125 47.734375 21.066406 65.71875 27.535156 61.914062 Z M 27.535156 61.914062 " fill-opacity="1" fill-rule="evenodd"/><g fill="#b94c8c" fill-opacity="1"><g transform="translate(66.640242, 46.097656)"><g><path d="M 1.417969 0 L 1.417969 -0.421875 C 1.917969 -0.582031 2.246094 -0.917969 2.398438 -1.433594 C 2.546875 -1.945312 2.621094 -2.742188 2.621094 -3.828125 L 2.621094 -17.273438 C 2.621094 -18.359375 2.546875 -19.15625 2.398438 -19.671875 C 2.246094 -20.183594 1.917969 -20.519531 1.417969 -20.679688 L 1.417969 -21.101562 L 7.746094 -21.101562 C 9.476562 -21.101562 10.886719 -20.917969 11.984375 -20.542969 C 13.078125 -20.171875 13.933594 -19.691406 14.546875 -19.097656 C 15.160156 -18.503906 15.585938 -17.867188 15.828125 -17.183594 C 16.066406 -16.5 16.1875 -15.855469 16.1875 -15.253906 C 16.1875 -14.007812 15.875 -12.851562 15.253906 -11.785156 C 14.628906 -10.722656 13.667969 -9.871094 12.359375 -9.238281 C 11.054688 -8.605469 9.367188 -8.289062 7.296875 -8.289062 L 5.816406 -8.289062 L 5.816406 -3.828125 C 5.816406 -2.742188 5.894531 -1.945312 6.042969 -1.433594 C 6.195312 -0.917969 6.523438 -0.582031 7.023438 -0.421875 L 7.023438 0 Z M 5.816406 -8.773438 L 7.144531 -8.773438 C 9.113281 -8.773438 10.546875 -9.296875 11.441406 -10.339844 C 12.335938 -11.386719 12.78125 -12.761719 12.78125 -14.46875 C 12.78125 -15.113281 12.691406 -15.792969 12.511719 -16.503906 C 12.328125 -17.21875 12.011719 -17.886719 11.5625 -18.507812 C 11.109375 -19.132812 10.492188 -19.640625 9.707031 -20.03125 C 8.921875 -20.425781 7.9375 -20.621094 6.753906 -20.621094 C 6.410156 -20.621094 6.097656 -20.601562 5.816406 -20.558594 Z M 5.816406 -8.773438 "/></g></g></g><g fill="#b94c8c" fill-opacity="1"><g transform="translate(81.681578, 46.097656)"><g><path d="M 12.359375 0 C 11.554688 0 11.152344 -0.402344 11.152344 -1.207031 L 11.152344 -6.179688 C 10.871094 -5.015625 10.449219 -3.9375 9.886719 -2.953125 C 9.324219 -1.96875 8.632812 -1.179688 7.808594 -0.585938 C 6.984375 0.00390625 6.050781 0.300781 5.003906 0.300781 C 3.898438 0.300781 2.9375 -0.0390625 2.125 -0.722656 C 1.3125 -1.40625 0.90625 -2.382812 0.90625 -3.648438 C 0.90625 -4.691406 1.222656 -5.542969 1.855469 -6.195312 C 2.488281 -6.847656 3.324219 -7.394531 4.371094 -7.839844 C 5.417969 -8.28125 6.5625 -8.671875 7.808594 -9.011719 L 11.152344 -9.976562 C 11.132812 -11.464844 10.757812 -12.527344 10.023438 -13.160156 C 9.289062 -13.792969 8.359375 -14.109375 7.234375 -14.109375 C 6.390625 -14.109375 5.558594 -13.914062 4.734375 -13.519531 C 3.910156 -13.128906 3.113281 -12.46875 2.351562 -11.546875 L 2.050781 -11.816406 C 2.894531 -12.863281 3.890625 -13.703125 5.035156 -14.335938 C 6.179688 -14.96875 7.4375 -15.285156 8.800781 -15.285156 C 10.632812 -15.285156 11.984375 -14.808594 12.855469 -13.851562 C 13.730469 -12.898438 14.167969 -11.496094 14.167969 -9.648438 L 14.167969 -3.828125 C 14.167969 -2.742188 14.242188 -1.945312 14.394531 -1.433594 C 14.546875 -0.917969 14.871094 -0.582031 15.375 -0.421875 L 15.375 0 Z M 3.707031 -4.703125 C 3.707031 -3.71875 4.003906 -3.003906 4.597656 -2.5625 C 5.191406 -2.121094 5.828125 -1.898438 6.511719 -1.898438 C 7.253906 -1.898438 7.914062 -2.125 8.484375 -2.578125 C 9.058594 -3.03125 9.542969 -3.613281 9.933594 -4.324219 C 10.324219 -5.039062 10.625 -5.789062 10.835938 -6.570312 C 11.046875 -7.355469 11.152344 -8.089844 11.152344 -8.773438 L 11.152344 -9.554688 L 7.929688 -8.621094 C 7.566406 -8.519531 7.148438 -8.375 6.675781 -8.183594 C 6.203125 -7.992188 5.742188 -7.746094 5.289062 -7.445312 C 4.839844 -7.144531 4.460938 -6.769531 4.160156 -6.316406 C 3.859375 -5.863281 3.707031 -5.324219 3.707031 -4.703125 Z M 3.707031 -4.703125 "/></g></g></g><g fill="#b94c8c" fill-opacity="1"><g transform="translate(97.657519, 46.097656)"><g><path d="M 9.042969 0.269531 C 8.359375 0.269531 7.703125 0.179688 7.070312 0 C 6.4375 -0.179688 5.859375 -0.421875 5.335938 -0.722656 L 5.335938 4.3125 C 5.335938 5.394531 5.410156 6.195312 5.5625 6.707031 C 5.710938 7.21875 6.039062 7.554688 6.542969 7.71875 L 6.542969 8.140625 L 1.054688 8.140625 L 1.054688 7.71875 C 1.558594 7.554688 1.882812 7.21875 2.035156 6.707031 C 2.1875 6.195312 2.261719 5.394531 2.261719 4.3125 L 2.261719 -10.761719 C 2.261719 -11.644531 2.15625 -12.230469 1.945312 -12.511719 C 1.734375 -12.792969 1.4375 -13.011719 1.054688 -13.171875 L 1.054688 -13.597656 L 5.035156 -15.34375 L 5.335938 -15.101562 L 5.335938 -13.144531 C 6.140625 -13.707031 7.019531 -14.203125 7.972656 -14.636719 C 8.929688 -15.066406 9.929688 -15.285156 10.972656 -15.285156 C 12.21875 -15.285156 13.300781 -14.96875 14.214844 -14.335938 C 15.128906 -13.703125 15.835938 -12.835938 16.339844 -11.742188 C 16.839844 -10.648438 17.09375 -9.40625 17.09375 -8.019531 C 17.09375 -6.492188 16.765625 -5.101562 16.113281 -3.84375 C 15.460938 -2.585938 14.53125 -1.585938 13.324219 -0.84375 C 12.117188 -0.101562 10.691406 0.269531 9.042969 0.269531 Z M 5.335938 -5.035156 C 5.335938 -4.511719 5.488281 -3.972656 5.789062 -3.421875 C 6.089844 -2.867188 6.480469 -2.355469 6.964844 -1.882812 C 7.445312 -1.410156 7.972656 -1.03125 8.546875 -0.738281 C 9.121094 -0.445312 9.6875 -0.300781 10.25 -0.300781 C 11.335938 -0.300781 12.167969 -0.5625 12.75 -1.085938 C 13.335938 -1.609375 13.730469 -2.285156 13.941406 -3.121094 C 14.152344 -3.953125 14.257812 -4.824219 14.257812 -5.726562 C 14.257812 -6.269531 14.214844 -6.902344 14.125 -7.625 C 14.03125 -8.351562 13.878906 -9.085938 13.65625 -9.828125 C 13.433594 -10.570312 13.117188 -11.265625 12.707031 -11.90625 C 12.292969 -12.550781 11.777344 -13.066406 11.152344 -13.460938 C 10.53125 -13.851562 9.765625 -14.046875 8.863281 -14.046875 C 8.199219 -14.046875 7.578125 -13.914062 6.992188 -13.640625 C 6.410156 -13.371094 5.859375 -13.03125 5.335938 -12.632812 Z M 5.335938 -5.035156 "/></g></g></g><g fill="#b94c8c" fill-opacity="1"><g transform="translate(115.984645, 46.097656)"><g><path d="M 6.332031 0.300781 C 4.742188 0.300781 3.59375 -0.179688 2.878906 -1.144531 C 2.164062 -2.109375 1.808594 -3.507812 1.808594 -5.335938 L 1.808594 -10.761719 C 1.808594 -11.644531 1.703125 -12.230469 1.492188 -12.511719 C 1.28125 -12.792969 0.984375 -13.011719 0.601562 -13.171875 L 0.601562 -13.597656 L 4.582031 -15.34375 L 4.882812 -15.101562 L 4.882812 -5.726562 C 4.882812 -4.121094 5.066406 -2.914062 5.425781 -2.109375 C 5.789062 -1.304688 6.550781 -0.90625 7.71875 -0.90625 C 8.402344 -0.90625 9.105469 -1.101562 9.828125 -1.492188 C 10.550781 -1.882812 11.285156 -2.453125 12.027344 -3.195312 L 12.027344 -10.761719 C 12.027344 -11.644531 11.921875 -12.230469 11.710938 -12.511719 C 11.5 -12.792969 11.203125 -13.011719 10.824219 -13.171875 L 10.824219 -13.597656 L 14.800781 -15.34375 L 15.101562 -15.101562 L 15.101562 -3.828125 C 15.101562 -2.742188 15.179688 -1.945312 15.328125 -1.433594 C 15.480469 -0.917969 15.804688 -0.582031 16.308594 -0.421875 L 16.308594 0 L 13.234375 0 C 12.429688 0 12.027344 -0.402344 12.027344 -1.207031 L 12.027344 -2.5625 C 11.164062 -1.738281 10.234375 -1.054688 9.238281 -0.511719 C 8.246094 0.03125 7.273438 0.300781 6.332031 0.300781 Z M 6.332031 0.300781 "/></g></g></g><g fill="#b94c8c" fill-opacity="1"><g transform="translate(133.196459, 46.097656)"><g><path d="M 0.84375 0 L 0.84375 -0.421875 C 1.347656 -0.582031 1.671875 -0.917969 1.824219 -1.433594 C 1.972656 -1.945312 2.050781 -2.742188 2.050781 -3.828125 L 2.050781 -10.761719 C 2.050781 -11.644531 1.945312 -12.230469 1.734375 -12.511719 C 1.523438 -12.792969 1.226562 -13.011719 0.84375 -13.171875 L 0.84375 -13.597656 L 4.824219 -15.34375 L 5.125 -15.101562 L 5.125 -12.570312 C 5.949219 -13.253906 6.894531 -13.878906 7.957031 -14.441406 C 9.023438 -15.003906 10.140625 -15.285156 11.304688 -15.285156 C 12.691406 -15.285156 13.8125 -14.898438 14.667969 -14.125 C 15.519531 -13.351562 15.945312 -12.078125 15.945312 -10.308594 L 15.945312 -3.828125 C 15.945312 -2.742188 16.023438 -1.945312 16.171875 -1.433594 C 16.324219 -0.917969 16.652344 -0.582031 17.152344 -0.421875 L 17.152344 0 L 11.667969 0 L 11.667969 -0.421875 C 12.167969 -0.582031 12.496094 -0.917969 12.644531 -1.433594 C 12.796875 -1.945312 12.871094 -2.742188 12.871094 -3.828125 L 12.871094 -9.765625 C 12.871094 -11.132812 12.585938 -12.195312 12.011719 -12.949219 C 11.441406 -13.703125 10.589844 -14.078125 9.464844 -14.078125 C 8.761719 -14.078125 8.070312 -13.90625 7.386719 -13.566406 C 6.703125 -13.222656 5.949219 -12.722656 5.125 -12.058594 L 5.125 -3.828125 C 5.125 -2.742188 5.199219 -1.945312 5.351562 -1.433594 C 5.5 -0.917969 5.828125 -0.582031 6.332031 -0.421875 L 6.332031 0 Z M 0.84375 0 "/></g></g></g><g fill="#b94c8c" fill-opacity="1"><g transform="translate(150.95086, 46.097656)"><g><path d="M 7.355469 0.363281 C 6.089844 0.339844 4.972656 -0.0195312 4.007812 -0.722656 C 3.042969 -1.425781 2.292969 -2.332031 1.75 -3.4375 C 1.207031 -4.542969 0.933594 -5.71875 0.933594 -6.964844 C 0.933594 -8.511719 1.269531 -9.90625 1.945312 -11.152344 C 2.617188 -12.398438 3.582031 -13.394531 4.839844 -14.136719 C 6.09375 -14.882812 7.597656 -15.253906 9.34375 -15.253906 C 9.988281 -15.253906 10.578125 -15.183594 11.109375 -15.042969 C 11.640625 -14.902344 12.128906 -14.722656 12.570312 -14.5 L 12.570312 -19.804688 C 12.570312 -20.691406 12.464844 -21.273438 12.253906 -21.554688 C 12.042969 -21.835938 11.746094 -22.058594 11.363281 -22.21875 L 11.363281 -22.640625 L 15.34375 -24.386719 L 15.644531 -24.148438 L 15.644531 -3.828125 C 15.644531 -2.742188 15.722656 -1.945312 15.871094 -1.433594 C 16.023438 -0.917969 16.347656 -0.582031 16.851562 -0.421875 L 16.851562 0 L 13.777344 0 C 12.972656 0 12.570312 -0.402344 12.570312 -1.207031 L 12.570312 -2.472656 C 12.1875 -2.03125 11.738281 -1.585938 11.214844 -1.144531 C 10.691406 -0.703125 10.109375 -0.335938 9.464844 -0.046875 C 8.824219 0.246094 8.121094 0.382812 7.355469 0.363281 Z M 3.890625 -9.40625 C 3.890625 -8.683594 3.964844 -7.867188 4.113281 -6.964844 C 4.265625 -6.058594 4.535156 -5.191406 4.929688 -4.355469 C 5.320312 -3.523438 5.863281 -2.828125 6.558594 -2.277344 C 7.25 -1.722656 8.140625 -1.445312 9.226562 -1.445312 C 9.886719 -1.445312 10.5 -1.609375 11.0625 -1.929688 C 11.625 -2.25 12.128906 -2.644531 12.570312 -3.105469 L 12.570312 -9.765625 C 12.570312 -10.511719 12.371094 -11.253906 11.96875 -12 C 11.566406 -12.742188 11.027344 -13.363281 10.355469 -13.867188 C 9.683594 -14.371094 8.921875 -14.621094 8.078125 -14.621094 C 6.972656 -14.621094 6.121094 -14.347656 5.515625 -13.808594 C 4.914062 -13.265625 4.492188 -12.597656 4.25 -11.800781 C 4.007812 -11.007812 3.890625 -10.210938 3.890625 -9.40625 Z M 3.890625 -9.40625 "/></g></g></g><g fill="#b94c8c" fill-opacity="1"><g transform="translate(168.343543, 46.097656)"><g><path d="M 12.359375 0 C 11.554688 0 11.152344 -0.402344 11.152344 -1.207031 L 11.152344 -6.179688 C 10.871094 -5.015625 10.449219 -3.9375 9.886719 -2.953125 C 9.324219 -1.96875 8.632812 -1.179688 7.808594 -0.585938 C 6.984375 0.00390625 6.050781 0.300781 5.003906 0.300781 C 3.898438 0.300781 2.9375 -0.0390625 2.125 -0.722656 C 1.3125 -1.40625 0.90625 -2.382812 0.90625 -3.648438 C 0.90625 -4.691406 1.222656 -5.542969 1.855469 -6.195312 C 2.488281 -6.847656 3.324219 -7.394531 4.371094 -7.839844 C 5.417969 -8.28125 6.5625 -8.671875 7.808594 -9.011719 L 11.152344 -9.976562 C 11.132812 -11.464844 10.757812 -12.527344 10.023438 -13.160156 C 9.289062 -13.792969 8.359375 -14.109375 7.234375 -14.109375 C 6.390625 -14.109375 5.558594 -13.914062 4.734375 -13.519531 C 3.910156 -13.128906 3.113281 -12.46875 2.351562 -11.546875 L 2.050781 -11.816406 C 2.894531 -12.863281 3.890625 -13.703125 5.035156 -14.335938 C 6.179688 -14.96875 7.4375 -15.285156 8.800781 -15.285156 C 10.632812 -15.285156 11.984375 -14.808594 12.855469 -13.851562 C 13.730469 -12.898438 14.167969 -11.496094 14.167969 -9.648438 L 14.167969 -3.828125 C 14.167969 -2.742188 14.242188 -1.945312 14.394531 -1.433594 C 14.546875 -0.917969 14.871094 -0.582031 15.375 -0.421875 L 15.375 0 Z M 3.707031 -4.703125 C 3.707031 -3.71875 4.003906 -3.003906 4.597656 -2.5625 C 5.191406 -2.121094 5.828125 -1.898438 6.511719 -1.898438 C 7.253906 -1.898438 7.914062 -2.125 8.484375 -2.578125 C 9.058594 -3.03125 9.542969 -3.613281 9.933594 -4.324219 C 10.324219 -5.039062 10.625 -5.789062 10.835938 -6.570312 C 11.046875 -7.355469 11.152344 -8.089844 11.152344 -8.773438 L 11.152344 -9.554688 L 7.929688 -8.621094 C 7.566406 -8.519531 7.148438 -8.375 6.675781 -8.183594 C 6.203125 -7.992188 5.742188 -7.746094 5.289062 -7.445312 C 4.839844 -7.144531 4.460938 -6.769531 4.160156 -6.316406 C 3.859375 -5.863281 3.707031 -5.324219 3.707031 -4.703125 Z M 3.707031 -4.703125 "/></g></g></g></svg>